<?xml version="1.0" encoding="UTF-8"?><svg xmlns="http://www.w3.org/2000/svg" xmlns:xlink="http://www.w3.org/1999/xlink" version="1.1" id="Layer_1" x="0px" y="0px" viewBox="0 0 100 100" xml:space="preserve"><path fill="#2EC19C" d="M88 2H12C6.477 2 2 6.477 2 12v76c0 5.523 4.477 10 10 10h76c5.523 0 10-4.477 10-10V12c0-5.523-4.477-10-10-10z"/><g fill="#FFF"><path d="M69 31.5H31c-2.76 0-5 2.25-5 5v17.003h48V36.5c0-2.75-2.24-5-5-5z"/><path d="M74 55.5v1c0 2.76-2.24 5-5 5H58v5h2c.55 0 1 .45 1 1 0 .56-.45 1-1 1H40c-.55 0-1-.44-1-1 0-.55.45-1 1-1h2v-5H31c-2.76 0-5-2.24-5-5v-1h48z"/></g><metadata><rdf:RDF xmlns:rdf="http://www.w3.org/1999/02/22-rdf-syntax-ns#" xmlns:rdfs="http://www.w3.org/2000/01/rdf-schema#" xmlns:dc="http://purl.org/dc/elements/1.1/"><rdf:Description about="https://iconscout.com/legal#licenses" dc:title="device,monitor,screen,lcd" dc:description="device,monitor,screen,lcd" dc:publisher="Iconscout" dc:date="2017-11-13" dc:format="image/svg+xml" dc:language="en"><dc:creator><rdf:Bag><rdf:li>Dinosoft Labs</rdf:li></rdf:Bag></dc:creator></rdf:Description></rdf:RDF></metadata></svg>